<svg viewBox="0 0 100 100" fill="none" xmlns="http://www.w3.org/2000/svg">
  <!-- Bowl body -->
  <path d="M14 52 Q14 82 50 82 Q86 82 86 52 Z" fill="#7B6BAE"/>
  <!-- Bowl rim -->
  <ellipse cx="50" cy="52" rx="36" ry="8.5" fill="#9580C9"/>
  <!-- Rim highlight -->
  <ellipse cx="50" cy="50" rx="28" ry="4" fill="#A98FD8" opacity="0.5"/>

  <!-- Back dark greens -->
  <ellipse cx="36" cy="45" rx="15" ry="11" fill="#166534" transform="rotate(-18 36 45)"/>
  <ellipse cx="64" cy="45" rx="15" ry="11" fill="#166534" transform="rotate(18 64 45)"/>

  <!-- Mid greens -->
  <ellipse cx="50" cy="40" rx="18" ry="13" fill="#16a34a"/>

  <!-- Front light greens -->
  <path d="M32 50 Q38 34 50 39 Q62 34 68 50 Q61 44 50 47 Q39 44 32 50Z" fill="#4ade80"/>
  <path d="M38 52 Q44 38 50 42 Q56 38 62 52 Q57 46 50 49 Q43 46 38 52Z" fill="#86efac" opacity="0.7"/>

  <!-- Yellow balls -->
  <circle cx="41" cy="51" r="6.5" fill="#d97706"/>
  <circle cx="41" cy="51" r="5.5" fill="#f59e0b"/>
  <circle cx="59" cy="49" r="6" fill="#b45309"/>
  <circle cx="59" cy="49" r="5" fill="#fbbf24"/>

  <!-- Ball highlights -->
  <circle cx="38.5" cy="48.5" r="2" fill="#fde68a" opacity="0.85"/>
  <circle cx="56.5" cy="46.5" r="1.8" fill="#fde68a" opacity="0.85"/>
</svg>
